<svg width="1440" height="1024" viewBox="0 0 1440 1024" fill="none" xmlns="http://www.w3.org/2000/svg">
<g clip-path="url(#clip0)">
<rect width="1440" height="1024" fill="white"/>
<g filter="url(#filter0_d)">
<path d="M375.796 399.16C310.7 618.128 184.135 470.705 19.6398 514.229C-144.856 557.753 -12.9725 -16.1905 -12.9725 -16.1905C-12.9725 -16.1905 339.849 -29.2618 375.796 -16.1906C411.743 -3.11929 670 -58.4707 670 104.307C670 267.084 440.892 180.192 375.796 399.16Z" fill="#156299"/>
<path d="M375.796 399.16C310.7 618.128 184.135 470.705 19.6398 514.229C-144.856 557.753 -12.9725 -16.1905 -12.9725 -16.1905C-12.9725 -16.1905 339.849 -29.2618 375.796 -16.1906C411.743 -3.11929 670 -58.4707 670 104.307C670 267.084 440.892 180.192 375.796 399.16Z" fill="url(#paint0_linear)"/>
<path d="M375.796 399.16C310.7 618.128 184.135 470.705 19.6398 514.229C-144.856 557.753 -12.9725 -16.1905 -12.9725 -16.1905C-12.9725 -16.1905 339.849 -29.2618 375.796 -16.1906C411.743 -3.11929 670 -58.4707 670 104.307C670 267.084 440.892 180.192 375.796 399.16Z" stroke="white"/>
</g>
<g filter="url(#filter1_d)">
<path d="M878.5 799C694.5 871 817.5 1031.5 817.5 1031.5H1476V485.5C1476 485.5 1426 559 1317 496.5C1208 434 1115.5 487 1108 637C1100.5 787 1062.5 727 878.5 799Z" fill="#156299"/>
<path d="M878.5 799C694.5 871 817.5 1031.5 817.5 1031.5H1476V485.5C1476 485.5 1426 559 1317 496.5C1208 434 1115.5 487 1108 637C1100.5 787 1062.5 727 878.5 799Z" fill="url(#paint1_linear)"/>
<path d="M878.5 799C694.5 871 817.5 1031.5 817.5 1031.5H1476V485.5C1476 485.5 1426 559 1317 496.5C1208 434 1115.5 487 1108 637C1100.5 787 1062.5 727 878.5 799Z" stroke="white"/>
<path d="M878.5 799C694.5 871 817.5 1031.5 817.5 1031.5H1476V485.5C1476 485.5 1426 559 1317 496.5C1208 434 1115.5 487 1108 637C1100.5 787 1062.5 727 878.5 799Z" stroke="url(#paint2_linear)"/>
</g>
</g>
<defs>
<filter id="filter0_d" x="-67.5" y="-22.5" width="742" height="554" filterUnits="userSpaceOnUse" color-interpolation-filters="sRGB">
<feFlood flood-opacity="0" result="BackgroundImageFix"/>
<feColorMatrix in="SourceAlpha" type="matrix" values="0 0 0 0 0 0 0 0 0 0 0 0 0 0 0 0 0 0 127 0"/>
<feOffset dy="4"/>
<feGaussianBlur stdDeviation="2"/>
<feColorMatrix type="matrix" values="0 0 0 0 0 0 0 0 0 0 0 0 0 0 0 0 0 0 0.25 0"/>
<feBlend mode="normal" in2="BackgroundImageFix" result="effect1_dropShadow"/>
<feBlend mode="normal" in="SourceGraphic" in2="effect1_dropShadow" result="shape"/>
</filter>
<filter id="filter1_d" x="772.743" y="470.256" width="707.757" height="569.744" filterUnits="userSpaceOnUse" color-interpolation-filters="sRGB">
<feFlood flood-opacity="0" result="BackgroundImageFix"/>
<feColorMatrix in="SourceAlpha" type="matrix" values="0 0 0 0 0 0 0 0 0 0 0 0 0 0 0 0 0 0 127 0"/>
<feOffset dy="4"/>
<feGaussianBlur stdDeviation="2"/>
<feColorMatrix type="matrix" values="0 0 0 0 0 0 0 0 0 0 0 0 0 0 0 0 0 0 0.25 0"/>
<feBlend mode="normal" in2="BackgroundImageFix" result="effect1_dropShadow"/>
<feBlend mode="normal" in="SourceGraphic" in2="effect1_dropShadow" result="shape"/>
</filter>
<linearGradient id="paint0_linear" x1="303" y1="-35.5" x2="303" y2="579" gradientUnits="userSpaceOnUse">
<stop stop-color="#0C395A"/>
<stop offset="0.713542" stop-color="#156299" stop-opacity="0.44"/>
</linearGradient>
<linearGradient id="paint1_linear" x1="1524.5" y1="857" x2="944" y2="587" gradientUnits="userSpaceOnUse">
<stop stop-color="#0C395A"/>
<stop offset="0.864583" stop-color="#156299" stop-opacity="0.46"/>
</linearGradient>
<linearGradient id="paint2_linear" x1="1126.62" y1="470.756" x2="1126.62" y2="1031.5" gradientUnits="userSpaceOnUse">
<stop stop-color="white"/>
<stop offset="1" stop-color="white" stop-opacity="0"/>
</linearGradient>
<clipPath id="clip0">
<rect width="1440" height="1024" fill="white"/>
</clipPath>
</defs>
</svg>
