<svg width="1440" height="1024" viewBox="0 0 1440 1024" fill="none" xmlns="http://www.w3.org/2000/svg">
<rect width="1440" height="1024" fill="#E5E5E5"/>
<g clip-path="url(#clip0)">
<rect width="1440" height="1024" fill="#156299"/>
<rect width="1440" height="1024" fill="url(#paint0_radial)"/>
<g filter="url(#filter0_i)">
<path d="M1266.57 1165.78C1266.57 1165.78 1112.09 1102.99 1224.5 940.5C1336.91 778.01 1307.5 776 1287.5 659.5C1267.5 543 1324.68 386.034 1450 377C1545.97 370.082 1515.77 289.9 1496.36 252.72L1485.5 234C1485.5 234 1490.43 241.349 1496.36 252.72L1812.8 798L1266.57 1165.78Z" fill="white"/>
</g>
<g filter="url(#filter1_i)">
<path d="M154.867 805C245.791 955.742 187.17 1031.09 154.867 1112.37C122.564 1193.65 -316.862 881.057 -316.862 881.057C-316.862 881.057 -193.956 631.859 -168.962 613.361C-143.967 594.862 -60.2492 380.359 47.3087 468.43C154.867 556.5 63.9422 654.258 154.867 805Z" fill="white"/>
</g>
<path d="M1331.5 78C1181 89 1205.92 -46.2243 1205.92 -46.2243L1523.38 10.0251C1523.38 10.0251 1565 203.876 1509.81 203.876C1454.62 203.876 1482 67 1331.5 78Z" fill="white" stroke="black"/>
</g>
<defs>
<filter id="filter0_i" x="883.659" y="234" width="965.228" height="948.928" filterUnits="userSpaceOnUse" color-interpolation-filters="sRGB">
<feFlood flood-opacity="0" result="BackgroundImageFix"/>
<feBlend mode="normal" in="SourceGraphic" in2="BackgroundImageFix" result="shape"/>
<feColorMatrix in="SourceAlpha" type="matrix" values="0 0 0 0 0 0 0 0 0 0 0 0 0 0 0 0 0 0 127 0" result="hardAlpha"/>
<feOffset dy="4"/>
<feGaussianBlur stdDeviation="2"/>
<feComposite in2="hardAlpha" operator="arithmetic" k2="-1" k3="1"/>
<feColorMatrix type="matrix" values="0 0 0 0 0 0 0 0 0 0 0 0 0 0 0 0 0 0 0.25 0"/>
<feBlend mode="normal" in2="shape" result="effect1_innerShadow"/>
</filter>
<filter id="filter1_i" x="-332" y="406.319" width="735.36" height="750.885" filterUnits="userSpaceOnUse" color-interpolation-filters="sRGB">
<feFlood flood-opacity="0" result="BackgroundImageFix"/>
<feBlend mode="normal" in="SourceGraphic" in2="BackgroundImageFix" result="shape"/>
<feColorMatrix in="SourceAlpha" type="matrix" values="0 0 0 0 0 0 0 0 0 0 0 0 0 0 0 0 0 0 127 0" result="hardAlpha"/>
<feOffset dy="4"/>
<feGaussianBlur stdDeviation="2"/>
<feComposite in2="hardAlpha" operator="arithmetic" k2="-1" k3="1"/>
<feColorMatrix type="matrix" values="0 0 0 0 0 0 0 0 0 0 0 0 0 0 0 0 0 0 0.25 0"/>
<feBlend mode="normal" in2="shape" result="effect1_innerShadow"/>
</filter>
<radialGradient id="paint0_radial" cx="0" cy="0" r="1" gradientUnits="userSpaceOnUse" gradientTransform="translate(760 552.5) rotate(90.1823) scale(471.502 663.05)">
<stop offset="0.166667" stop-color="#0F4870" stop-opacity="0.86"/>
<stop offset="0.927083" stop-color="#156299" stop-opacity="0.1"/>
</radialGradient>
<clipPath id="clip0">
<rect width="1440" height="1024" fill="white"/>
</clipPath>
</defs>
</svg>
