<svg width="1440" height="1024" viewBox="0 0 1440 1024" fill="none" xmlns="http://www.w3.org/2000/svg">
<g clip-path="url(#clip0)">
<rect width="1440" height="1024" fill="white"/>
<path d="M-36.9202 539.5C-61.7836 580.015 -70.2405 618.724 -85 605L-47.5 -39.0002C-47.5 -39.0002 996.5 -110 1120 -39.0002C1243.5 32 1243.5 136 1469 115.5C1694.5 94.9998 1552 407.5 1500 462.5C1448 517.5 1357.5 510 1305.5 354C1278.78 273.836 1236 219 1153 209C1027.29 193.854 976.472 49.9768 804 82.5C629 115.5 574 57.4998 483.5 115.5C411.428 161.69 439.185 229.06 280.5 278.5C181 309.5 238.5 462.5 93.5 462.5C23.5923 462.5 -13.7736 501.782 -36.9202 539.5C-36.9202 539.5 59.4643 579.551 93.5 631.5C141 704 128.876 696.89 228.5 738.5C353 790.5 249.648 879.414 353 930C471.5 988 435.724 1031 510.5 1031C602.5 1031 644.568 960.671 733 1002.5C781.161 1025.28 815.282 1037.79 840.645 1043H887.41C920.387 1032.76 930.664 997.828 977.5 971.5C1062 924 1133.5 979 1169 875C1209.7 755.756 1305.5 847.845 1305.5 691C1305.5 605 1451 560.5 1451 560.5V1043H887.41C875.624 1046.66 860.937 1047.17 840.645 1043H-47.5L-36.9202 539.5Z" fill="#156299"/>
<path d="M-85 605C-56.5 631.5 -51.5 462.5 93.5 462.5C238.5 462.5 181 309.5 280.5 278.5C439.185 229.06 411.428 161.69 483.5 115.5C574 57.4998 629 115.5 804 82.5C976.472 49.9768 1027.29 193.854 1153 209C1236 219 1278.78 273.836 1305.5 354C1357.5 510 1448 517.5 1500 462.5C1552 407.5 1694.5 94.9998 1469 115.5C1243.5 136 1243.5 32 1120 -39.0002C996.5 -110 -47.5 -39.0002 -47.5 -39.0002L-85 605ZM1451 560.5C1451 560.5 1305.5 605 1305.5 691C1305.5 847.845 1209.7 755.756 1169 875C1133.5 979 1062 924 977.5 971.5C893 1019 927.5 1094.5 733 1002.5C644.567 960.671 602.5 1031 510.5 1031C435.724 1031 471.5 988 353 930C249.648 879.414 353 790.5 228.5 738.5C128.876 696.89 141 704 93.5 631.5C59.4643 579.551 -36.9202 539.5 -36.9202 539.5L-47.5 1043H1451V560.5Z" stroke="#156299"/>
</g>
<defs>
<clipPath id="clip0">
<rect width="1440" height="1024" fill="white"/>
</clipPath>
</defs>
</svg>
