<svg width="1440" height="1024" viewBox="0 0 1440 1024" fill="none" xmlns="http://www.w3.org/2000/svg">
<g clip-path="url(#clip0)">
<rect width="1440" height="1024" fill="white"/>
<g filter="url(#filter0_d)">
<path d="M217.05 707.632C87.4997 436.191 21.5249 679.225 -131.417 467.754C-242.215 314.554 -85.2353 1020.73 -85.2353 1020.73C-85.2353 1020.73 979.36 1211.37 687.272 1081.97C395.183 952.559 513.693 895.115 453.96 818.102C394.228 741.088 264.599 807.258 217.05 707.632Z" fill="#DA262E"/>
<path d="M217.05 707.632C87.4997 436.191 21.5249 679.225 -131.417 467.754C-242.215 314.554 -85.2353 1020.73 -85.2353 1020.73C-85.2353 1020.73 979.36 1211.37 687.272 1081.97C395.183 952.559 513.693 895.115 453.96 818.102C394.228 741.088 264.599 807.258 217.05 707.632Z" fill="url(#paint0_linear)"/>
</g>
<g filter="url(#filter1_d)">
<path d="M-124.812 -47.5647L251.794 -434.895C251.794 -434.895 1157.51 -368.044 1432 -47.5647C1541.61 80.407 1447.82 287.169 1238 207.5C955.5 100.232 959.511 281.288 767 338C583.643 392.015 419.213 54.5823 181.758 232.199C8.56596 361.746 -124.812 -47.5647 -124.812 -47.5647Z" fill="#156299"/>
<path d="M-124.812 -47.5647L251.794 -434.895C251.794 -434.895 1157.51 -368.044 1432 -47.5647C1541.61 80.407 1447.82 287.169 1238 207.5C955.5 100.232 959.511 281.288 767 338C583.643 392.015 419.213 54.5823 181.758 232.199C8.56596 361.746 -124.812 -47.5647 -124.812 -47.5647Z" fill="url(#paint1_linear)"/>
</g>
<g filter="url(#filter2_d)">
<path d="M1397.93 647.602C1519.27 524.846 1634.15 634.876 1667.07 701.989C1743.47 857.715 1311.26 1153.63 1311.26 1153.63L1140.1 1074.88C1140.1 1074.88 646.713 1242.95 798 955.5C858 841.5 997.675 953.487 1074.05 787.5C1149.69 623.109 1272.5 774.5 1397.93 647.602Z" fill="#F8E316"/>
<path d="M1397.93 647.602C1519.27 524.846 1634.15 634.876 1667.07 701.989C1743.47 857.715 1311.26 1153.63 1311.26 1153.63L1140.1 1074.88C1140.1 1074.88 646.713 1242.95 798 955.5C858 841.5 997.675 953.487 1074.05 787.5C1149.69 623.109 1272.5 774.5 1397.93 647.602Z" fill="url(#paint2_linear)"/>
</g>
</g>
<defs>
<filter id="filter0_d" x="-175" y="446" width="917" height="689" filterUnits="userSpaceOnUse" color-interpolation-filters="sRGB">
<feFlood flood-opacity="0" result="BackgroundImageFix"/>
<feColorMatrix in="SourceAlpha" type="matrix" values="0 0 0 0 0 0 0 0 0 0 0 0 0 0 0 0 0 0 127 0"/>
<feOffset dy="4"/>
<feGaussianBlur stdDeviation="2"/>
<feColorMatrix type="matrix" values="0 0 0 0 0 0 0 0 0 0 0 0 0 0 0 0 0 0 0.25 0"/>
<feBlend mode="normal" in2="BackgroundImageFix" result="effect1_dropShadow"/>
<feBlend mode="normal" in="SourceGraphic" in2="effect1_dropShadow" result="shape"/>
</filter>
<filter id="filter1_d" x="-204.138" y="-652.936" width="1759.03" height="1378.68" filterUnits="userSpaceOnUse" color-interpolation-filters="sRGB">
<feFlood flood-opacity="0" result="BackgroundImageFix"/>
<feColorMatrix in="SourceAlpha" type="matrix" values="0 0 0 0 0 0 0 0 0 0 0 0 0 0 0 0 0 0 127 0"/>
<feOffset dy="4"/>
<feGaussianBlur stdDeviation="2"/>
<feColorMatrix type="matrix" values="0 0 0 0 0 0 0 0 0 0 0 0 0 0 0 0 0 0 0.25 0"/>
<feBlend mode="normal" in2="BackgroundImageFix" result="effect1_dropShadow"/>
<feBlend mode="normal" in="SourceGraphic" in2="effect1_dropShadow" result="shape"/>
</filter>
<filter id="filter2_d" x="765.17" y="592.213" width="914.956" height="569.42" filterUnits="userSpaceOnUse" color-interpolation-filters="sRGB">
<feFlood flood-opacity="0" result="BackgroundImageFix"/>
<feColorMatrix in="SourceAlpha" type="matrix" values="0 0 0 0 0 0 0 0 0 0 0 0 0 0 0 0 0 0 127 0"/>
<feOffset dy="4"/>
<feGaussianBlur stdDeviation="2"/>
<feColorMatrix type="matrix" values="0 0 0 0 0 0 0 0 0 0 0 0 0 0 0 0 0 0 0.25 0"/>
<feBlend mode="normal" in2="BackgroundImageFix" result="effect1_dropShadow"/>
<feBlend mode="normal" in="SourceGraphic" in2="effect1_dropShadow" result="shape"/>
</filter>
<linearGradient id="paint0_linear" x1="-0.0668495" y1="1087.65" x2="531.221" y2="710.976" gradientUnits="userSpaceOnUse">
<stop stop-color="#83161B"/>
<stop offset="0.895833" stop-color="#DA262E" stop-opacity="0.65"/>
</linearGradient>
<linearGradient id="paint1_linear" x1="596.463" y1="848.434" x2="305.014" y2="-457.016" gradientUnits="userSpaceOnUse">
<stop stop-color="#0C395A"/>
<stop offset="0.666667" stop-color="#156299" stop-opacity="0.7"/>
</linearGradient>
<linearGradient id="paint2_linear" x1="1437.68" y1="1141.58" x2="991.897" y2="659.097" gradientUnits="userSpaceOnUse">
<stop stop-color="#C6B406"/>
<stop offset="1" stop-color="#F8E316" stop-opacity="0.7"/>
</linearGradient>
<clipPath id="clip0">
<rect width="1440" height="1024" fill="white"/>
</clipPath>
</defs>
</svg>
