<svg width="1440" height="1024" viewBox="0 0 1440 1024" fill="none" xmlns="http://www.w3.org/2000/svg">
<g clip-path="url(#clip0)">
<rect width="1440" height="1024" fill="white"/>
<path d="M604 803.326C354.5 609.327 0 834.851 0 834.851V1024L1509 1009.45V743.51C1509 743.51 1466 666.718 1181 803.326C964.963 906.878 807.066 961.22 604 803.326Z" fill="#F8E316"/>
<path d="M578 859.247C328.5 684.519 -26 887.64 -26 887.64V1058L1483 1044.9V805.373C1483 805.373 1440 736.21 1155 859.247C938.963 952.512 781.066 1001.46 578 859.247Z" fill="#DA262E"/>
<path d="M579.4 938.093C329.735 768.504 -25 965.651 -25 965.651V1131L1485 1118.28V885.803C1485 885.803 1441.97 818.674 1156.78 938.093C940.603 1028.62 782.601 1076.12 579.4 938.093Z" fill="#156299"/>
<path d="M604 283.674C354.5 477.673 0 252.149 0 252.149V63L1509 77.5499V343.49C1509 343.49 1466 420.282 1181 283.674C964.963 180.122 807.066 125.78 604 283.674Z" fill="#F8E316"/>
<path d="M570 224.753C320.5 399.481 -34 196.36 -34 196.36V26L1475 39.1046V278.627C1475 278.627 1432 347.79 1147 224.753C930.963 131.488 773.066 82.5432 570 224.753Z" fill="#DA262E"/>
<path d="M587.4 162.907C337.735 332.496 -17 135.349 -17 135.349V-30L1493 -17.2808V215.197C1493 215.197 1449.97 282.326 1164.78 162.907C948.603 72.3849 790.601 24.8802 587.4 162.907Z" fill="#156299"/>
</g>
<defs>
<clipPath id="clip0">
<rect width="1440" height="1024" fill="white"/>
</clipPath>
</defs>
</svg>
