<svg width="1500" height="1000" viewBox="0 0 1500 1000" fill="none" xmlns="http://www.w3.org/2000/svg">
<rect width="1500" height="1000" fill="#E5E5E5"/>
<g clip-path="url(#clip0)">
<rect width="1500" height="1000" fill="white"/>
<g filter="url(#filter0_d)">
<path d="M-25.6219 -80.5306C-25.6219 -80.5306 -122.341 335.469 29.3781 335.469C186.378 335.469 5.37805 120.469 259.378 158.969C513.378 197.469 408.378 -22.5306 390.378 -66.0306C372.378 -109.531 -25.6219 -80.5306 -25.6219 -80.5306Z" fill="#DA262E"/>
</g>
<g clip-path="url(#clip1)" filter="url(#filter1_i)">
<g filter="url(#filter2_d)">
<path d="M1540.74 1138C1540.74 1138 1637.46 722 1485.74 722C1328.74 722 1509.74 937 1255.74 898.5C1001.74 860 1106.74 1080 1124.74 1123.5C1142.74 1167 1540.74 1138 1540.74 1138Z" fill="#DA262E"/>
</g>
</g>
</g>
<defs>
<filter id="filter0_d" x="-60" y="-90" width="491.118" height="433.469" filterUnits="userSpaceOnUse" color-interpolation-filters="sRGB">
<feFlood flood-opacity="0" result="BackgroundImageFix"/>
<feColorMatrix in="SourceAlpha" type="matrix" values="0 0 0 0 0 0 0 0 0 0 0 0 0 0 0 0 0 0 127 0"/>
<feOffset dy="4"/>
<feGaussianBlur stdDeviation="2"/>
<feColorMatrix type="matrix" values="0 0 0 0 0 0 0 0 0 0 0 0 0 0 0 0 0 0 0.25 0"/>
<feBlend mode="normal" in2="BackgroundImageFix" result="effect1_dropShadow"/>
<feBlend mode="normal" in="SourceGraphic" in2="effect1_dropShadow" result="shape"/>
</filter>
<filter id="filter1_i" x="1044" y="582" width="456" height="422" filterUnits="userSpaceOnUse" color-interpolation-filters="sRGB">
<feFlood flood-opacity="0" result="BackgroundImageFix"/>
<feBlend mode="normal" in="SourceGraphic" in2="BackgroundImageFix" result="shape"/>
<feColorMatrix in="SourceAlpha" type="matrix" values="0 0 0 0 0 0 0 0 0 0 0 0 0 0 0 0 0 0 127 0" result="hardAlpha"/>
<feOffset dy="4"/>
<feGaussianBlur stdDeviation="2"/>
<feComposite in2="hardAlpha" operator="arithmetic" k2="-1" k3="1"/>
<feColorMatrix type="matrix" values="0 0 0 0 0 0 0 0 0 0 0 0 0 0 0 0 0 0 0.25 0"/>
<feBlend mode="normal" in2="shape" result="effect1_innerShadow"/>
</filter>
<filter id="filter2_d" x="1084" y="722" width="491.118" height="433.469" filterUnits="userSpaceOnUse" color-interpolation-filters="sRGB">
<feFlood flood-opacity="0" result="BackgroundImageFix"/>
<feColorMatrix in="SourceAlpha" type="matrix" values="0 0 0 0 0 0 0 0 0 0 0 0 0 0 0 0 0 0 127 0"/>
<feOffset dy="4"/>
<feGaussianBlur stdDeviation="2"/>
<feColorMatrix type="matrix" values="0 0 0 0 0 0 0 0 0 0 0 0 0 0 0 0 0 0 0.25 0"/>
<feBlend mode="normal" in2="BackgroundImageFix" result="effect1_dropShadow"/>
<feBlend mode="normal" in="SourceGraphic" in2="effect1_dropShadow" result="shape"/>
</filter>
<clipPath id="clip0">
<rect width="1500" height="1000" fill="white"/>
</clipPath>
<clipPath id="clip1">
<rect width="456" height="418" fill="white" transform="translate(1500 1000) rotate(-180)"/>
</clipPath>
</defs>
</svg>
