<svg width="300" height="400" viewBox="0 0 300 400" fill="none" xmlns="http://www.w3.org/2000/svg">
<g clip-path="url(#clip0)">
<rect width="300" height="400" fill="white"/>
<g filter="url(#filter0_i)">
<path d="M346 228C434.53 144.906 435.355 311.644 435.355 311.644L161.82 635.596L-157.505 257.442C-157.505 257.442 -76.2144 334.379 -37.1692 277.144C43.4874 158.911 50 320 135.643 236.724C229.796 145.173 232 335 346 228Z" fill="#DA262E"/>
<path d="M346 228C434.53 144.906 435.355 311.644 435.355 311.644L161.82 635.596L-157.505 257.442C-157.505 257.442 -76.2144 334.379 -37.1692 277.144C43.4874 158.911 50 320 135.643 236.724C229.796 145.173 232 335 346 228Z" fill="url(#paint0_linear)"/>
</g>
</g>
<defs>
<filter id="filter0_i" x="-211" y="-47.688" width="683.958" height="687.284" filterUnits="userSpaceOnUse" color-interpolation-filters="sRGB">
<feFlood flood-opacity="0" result="BackgroundImageFix"/>
<feBlend mode="normal" in="SourceGraphic" in2="BackgroundImageFix" result="shape"/>
<feColorMatrix in="SourceAlpha" type="matrix" values="0 0 0 0 0 0 0 0 0 0 0 0 0 0 0 0 0 0 127 0" result="hardAlpha"/>
<feOffset dy="4"/>
<feGaussianBlur stdDeviation="2"/>
<feComposite in2="hardAlpha" operator="arithmetic" k2="-1" k3="1"/>
<feColorMatrix type="matrix" values="0 0 0 0 0 0 0 0 0 0 0 0 0 0 0 0 0 0 0.25 0"/>
<feBlend mode="normal" in2="shape" result="effect1_innerShadow"/>
</filter>
<linearGradient id="paint0_linear" x1="149" y1="199" x2="139" y2="473" gradientUnits="userSpaceOnUse">
<stop offset="0.015625" stop-color="#DA262E" stop-opacity="0.53"/>
<stop offset="0.828125" stop-color="#94191F"/>
</linearGradient>
<clipPath id="clip0">
<rect width="300" height="400" fill="white"/>
</clipPath>
</defs>
</svg>
