<svg width="300" height="400" viewBox="0 0 300 400" fill="none" xmlns="http://www.w3.org/2000/svg">
<g clip-path="url(#clip0)">
<rect width="300" height="400" fill="white"/>
<g filter="url(#filter0_i)">
<path d="M255.67 158.989C313.191 105.835 317.34 216.343 317.34 216.343L345.584 423.95L141.062 425.113L-15.0791 426L-81.0371 167.64C-81.0371 167.64 -24.9145 220.376 0.0109179 183.291C51.5001 106.682 59.3374 213.569 114.921 160.233C176.028 101.597 181.599 227.434 255.67 158.989Z" fill="#DA262E"/>
<path d="M255.67 158.989C313.191 105.835 317.34 216.343 317.34 216.343L345.584 423.95L141.062 425.113L-15.0791 426L-81.0371 167.64C-81.0371 167.64 -24.9145 220.376 0.0109179 183.291C51.5001 106.682 59.3374 213.569 114.921 160.233C176.028 101.597 181.599 227.434 255.67 158.989Z" fill="url(#paint0_linear)"/>
</g>
</g>
<defs>
<filter id="filter0_i" x="-180.938" y="-29" width="641.335" height="635.928" filterUnits="userSpaceOnUse" color-interpolation-filters="sRGB">
<feFlood flood-opacity="0" result="BackgroundImageFix"/>
<feBlend mode="normal" in="SourceGraphic" in2="BackgroundImageFix" result="shape"/>
<feColorMatrix in="SourceAlpha" type="matrix" values="0 0 0 0 0 0 0 0 0 0 0 0 0 0 0 0 0 0 127 0" result="hardAlpha"/>
<feOffset dy="4"/>
<feGaussianBlur stdDeviation="2"/>
<feComposite in2="hardAlpha" operator="arithmetic" k2="-1" k3="1"/>
<feColorMatrix type="matrix" values="0 0 0 0 0 0 0 0 0 0 0 0 0 0 0 0 0 0 0.25 0"/>
<feBlend mode="normal" in2="shape" result="effect1_innerShadow"/>
</filter>
<linearGradient id="paint0_linear" x1="135.064" y1="181.311" x2="112.743" y2="409.388" gradientUnits="userSpaceOnUse">
<stop offset="0.015625" stop-color="#DA262E" stop-opacity="0.53"/>
<stop offset="0.828125" stop-color="#AE1E24"/>
</linearGradient>
<clipPath id="clip0">
<rect width="300" height="400" fill="white"/>
</clipPath>
</defs>
</svg>
