<svg width="1440" height="1024" viewBox="0 0 1440 1024" fill="none" xmlns="http://www.w3.org/2000/svg">
<rect width="1440" height="1024" fill="#E5E5E5"/>
<g clip-path="url(#clip0)">
<rect width="1440" height="1024" fill="white"/>
<path d="M-34.4702 377.961C-68.6736 511.27 -24.1953 111.864 -24.1953 111.864L-34.4702 -14.0539C-34.4702 -14.0539 640.976 -114.539 609.476 5.4612C577.976 125.461 401.976 40.9612 331.976 180.461C215.15 413.279 -1.69346 250.213 -34.4702 377.961Z" fill="#DA262E"/>
<path d="M1053.48 101.961C1079.78 -73.2996 1424.48 -14.0539 1424.48 -14.0539L1462.98 -14.0539L1462.98 1076.96L1173.48 1076.96C1173.48 1076.96 455.476 1195.46 596.476 1036.96C639.737 988.33 463.266 871.273 596.476 757.961C729.686 644.65 664.476 587.461 688.476 446.461C730.062 202.142 1010.48 388.461 1053.48 101.961Z" fill="#DA262E"/>
</g>
<defs>
<clipPath id="clip0">
<rect width="1440" height="1024" fill="white"/>
</clipPath>
</defs>
</svg>
