<svg width="667" height="375" viewBox="0 0 667 375" fill="none" xmlns="http://www.w3.org/2000/svg">
<g clip-path="url(#clip0)">
<rect width="667" height="375" fill="white"/>
<path d="M263.239 102.139C193.761 6.03129 -16.5527 60.3805 -28.5819 -23.2752C-32.3856 -49.7267 9.76793 -108.459 9.76793 -108.459L741.46 6.28097C741.46 6.28097 722.602 478.786 662.392 344.819C572.526 144.868 379.011 262.285 263.239 102.139Z" fill="#F8E316"/>
<path d="M259.736 77.9851C177.983 8.60734 -24.257 37.0429 -47.1898 -21.2498C-54.4411 -39.6817 -20.1721 -78.4183 -20.1721 -78.4183L723.23 32.4722C723.23 32.4722 766.351 357.967 688.866 262.845C573.217 120.873 395.959 193.589 259.736 77.9851Z" fill="#DA262E"/>
<g filter="url(#filter0_d)">
<path d="M279.474 56.0276C198.058 6.48815 12.154 35.6708 -13.6943 -7.67659C-21.8675 -21.3828 7.00446 -52.0524 7.00446 -52.0524L707.052 4.05453C707.052 4.05453 772.388 249.296 692.945 180.07C574.374 76.7494 415.139 138.575 279.474 56.0276Z" fill="#156299"/>
</g>
</g>
<defs>
<filter id="filter0_d" x="-19.1516" y="-52.0524" width="755.474" height="252.436" filterUnits="userSpaceOnUse" color-interpolation-filters="sRGB">
<feFlood flood-opacity="0" result="BackgroundImageFix"/>
<feColorMatrix in="SourceAlpha" type="matrix" values="0 0 0 0 0 0 0 0 0 0 0 0 0 0 0 0 0 0 127 0"/>
<feOffset dy="4"/>
<feGaussianBlur stdDeviation="2"/>
<feColorMatrix type="matrix" values="0 0 0 0 0 0 0 0 0 0 0 0 0 0 0 0 0 0 0.25 0"/>
<feBlend mode="normal" in2="BackgroundImageFix" result="effect1_dropShadow"/>
<feBlend mode="normal" in="SourceGraphic" in2="effect1_dropShadow" result="shape"/>
</filter>
<clipPath id="clip0">
<rect width="667" height="375" fill="white"/>
</clipPath>
</defs>
</svg>
