<svg width="1500" height="850" viewBox="0 0 1500 850" fill="none" xmlns="http://www.w3.org/2000/svg">
<rect width="1500" height="850" fill="#E5E5E5"/>
<g clip-path="url(#clip0)">
<rect width="1500" height="850" fill="white"/>
<path d="M1341.85 770.234L1160.11 849.065H1499.5V603.589C1499.13 603.654 1498.58 603.754 1497.88 603.898C1496.45 604.187 1494.38 604.652 1491.81 605.351C1486.66 606.749 1479.5 609.083 1471.46 612.828C1455.39 620.319 1435.84 633.444 1421.86 655.985C1414.89 667.218 1413 677.435 1414.06 687.054C1415.13 696.692 1419.16 705.767 1424.09 714.707C1426.17 718.462 1428.39 722.183 1430.63 725.911C1431.05 726.62 1431.47 727.329 1431.9 728.039C1434.55 732.476 1437.16 736.928 1439.46 741.438C1444.06 750.456 1447.45 759.744 1447.45 769.685C1447.45 776.065 1445.79 780.905 1442.82 784.455C1439.86 788.001 1435.65 790.206 1430.65 791.403C1420.68 793.791 1407.44 792.193 1394.29 789.044C1381.12 785.891 1367.96 781.163 1358.1 777.226C1353.16 775.258 1349.05 773.486 1346.17 772.206C1344.73 771.566 1343.6 771.049 1342.83 770.691C1342.45 770.513 1342.15 770.374 1341.95 770.28C1341.91 770.263 1341.88 770.248 1341.85 770.234ZM1157.01 849.065C1156.88 848.641 1156.69 848.02 1156.47 847.228C1156.02 845.635 1155.43 843.348 1154.86 840.564C1153.71 834.999 1152.64 827.435 1152.93 819.461C1153.22 811.49 1154.88 803.077 1159.22 795.841C1163.58 788.591 1170.61 782.555 1181.58 779.323C1206.65 771.939 1225.05 764.827 1238.01 758.216C1250.98 751.596 1258.42 745.512 1261.64 740.218C1263.24 737.584 1263.78 735.171 1263.48 732.991C1263.17 730.81 1262 728.796 1260.07 726.978C1256.17 723.326 1249.24 720.545 1240.37 718.92C1222.66 715.674 1197.55 717.096 1174.63 725.008C1151.71 732.92 1131.07 747.289 1122.13 769.869C1109.37 802.111 1081.96 821.575 1051.88 833.266C1027.52 842.735 1001.37 847.121 979.728 849.065H1157.01Z" fill="#156299" stroke="white"/>
<path d="M-3 625C-3 625 47.3821 631.826 75.4308 673.452C103.48 715.079 49.9533 742.064 49.9533 778.188C49.9533 824.441 154.861 778.188 154.861 778.188L338.699 851.6C338.699 851.6 358.056 799.239 314.72 787.487C114.396 733.161 338.699 694.497 374.667 778.188C399.997 837.125 483.548 849.46 530.756 851.6H564C564 851.6 550.583 852.5 530.756 851.6H338.699H-3V625Z" fill="#156299"/>
<path d="M-3 625C-3 625 47.3821 631.826 75.4308 673.452C103.48 715.079 49.9533 742.064 49.9533 778.188C49.9533 824.441 154.861 778.188 154.861 778.188L338.699 851.6C338.699 851.6 358.056 799.239 314.72 787.487C114.396 733.161 338.699 694.497 374.667 778.188C410.635 861.878 564 851.6 564 851.6H-3V625Z" stroke="#FFFAFA"/>
<path d="M1502.5 331C1502.5 331 1378 360 1378 472C1378 556.674 1474.59 584.192 1502.5 609.216V634.5C1458 673 1416 695 1473.5 759C1492.03 779.626 1446.22 797.915 1375.61 813.231C1316.5 746.315 1215.81 672.864 1160.5 759C1106.2 843.562 1010.31 860.424 979.116 863.718C972.572 864.236 969 864.5 969 864.5C969 864.5 969.05 864.499 969.148 864.495C976.612 864.248 1265.7 854.667 1403.5 848.5H1502.5V634.5C1513.36 625.107 1511.51 617.291 1502.5 609.216V331Z" fill="#F8E316"/>
<path d="M1499.5 281.5C1499.5 281.5 1394.5 331.499 1394.5 452.5C1394.5 526 1494.7 560.752 1479 658.5C1473.66 691.77 1487.42 714.542 1499.5 735.754V818.754C1456.81 854.44 1347.62 716.377 1270 751C1219.18 773.672 1167.5 850 1167.5 850H1499.5V818.754C1502.51 816.239 1505.19 812.862 1507.5 808.5C1523.19 778.927 1512.29 758.216 1499.5 735.754V281.5Z" fill="#DA262E"/>
<path d="M1499.5 281.5C1499.5 281.5 1394.5 331.499 1394.5 452.5C1394.5 526 1494.7 560.752 1479 658.5C1468 727 1538 751 1507.5 808.5C1472.36 874.756 1353.09 713.937 1270 751C1219.18 773.672 1167.5 850 1167.5 850H1499.5V281.5Z" stroke="white"/>
<path d="M-3 339C-3 339 121.5 368 121.5 480C121.5 564.674 24.9051 592.192 -3 617.216V642.5C41.5 681 83.5 703 26 767C7.46904 787.626 53.281 805.915 123.888 821.231C183.002 754.315 283.687 680.864 339 767C393.302 851.562 489.186 868.424 520.384 871.718C526.928 872.236 530.5 872.5 530.5 872.5C530.5 872.5 530.45 872.499 530.352 872.495C522.888 872.248 233.805 862.667 96 856.5H-3V642.5C-13.8571 633.107 -12.0054 625.291 -3 617.216V339Z" fill="#F8E316"/>
<path d="M530.5 872.5C530.5 872.5 -31.5 831 26 767C83.5 703 41.5 681 -3 642.5C-47.5 604 121.5 592 121.5 480C121.5 368 -3 339 -3 339V856.5C-3 856.5 27.2677 856.5 96 856.5M530.5 872.5C530.5 872.5 404.5 869 339 767C273.5 665 144.376 786.783 96 856.5M530.5 872.5C530.5 872.5 235.612 862.748 96 856.5" stroke="#FEFBFB"/>
<path d="M-7.41301 281C-7.41301 281 103.094 331.043 103.094 452.15C103.094 525.715 -2.35772 560.498 14.1622 658.332C19.785 691.631 5.29807 714.423 -7.41301 735.654V818.726C37.5169 854.444 152.438 716.259 234.124 750.913C287.613 773.605 342 850 342 850H-7.41301V818.726C-10.5792 816.209 -13.3977 812.829 -15.8326 808.464C-32.3418 778.865 -20.873 758.135 -7.41301 735.654V281Z" fill="#DA262E"/>
<path d="M-7.41301 281C-7.41301 281 103.094 331.043 103.094 452.15C103.094 525.715 -2.35772 560.498 14.1622 658.332C25.7391 726.892 -47.9323 750.913 -15.8326 808.464C21.1552 874.778 146.682 713.817 234.124 750.913C287.613 773.605 342 850 342 850H-7.41301V281Z" stroke="white"/>
<path d="M1453.5 429.5C1455.72 380.636 1499.5 313 1499.5 313V563.5C1499.5 563.5 1450.99 484.771 1453.5 429.5Z" fill="#156299" stroke="white"/>
<path d="M46.5 433.5C44.281 384.636 0.5 317 0.5 317V567.5C0.5 567.5 49.0099 488.771 46.5 433.5Z" fill="#156299" stroke="white"/>
</g>
<path d="M144 163C-49.5001 155.001 6.49999 -3.50054 6.49999 -3.50054L814 -3.50055L1514 -3.50054C1514 -3.50054 1510 154.247 1221.5 204.499C1110.25 223.878 1052 146.499 944 170.999C836.982 195.277 675.5 252.5 521.5 163C367.5 73.5 337.5 170.999 144 163Z" fill="#F8E316" stroke="white"/>
<path d="M218.5 146.5C73.9999 187.076 0 -9 0 -9H130.5H1504C1504 -9 1437.5 172 1276 182.5C1114.5 193 1146.5 96 926 168.5C705.5 241 661 204.5 519.5 146.5C378 88.5 363 105.924 218.5 146.5Z" fill="#DA262E" stroke="white"/>
<path d="M259.5 85.0671C128.698 186.778 -29 -9.20221 -29 -9.20221H1504C1504 -9.20221 1457.55 53.1205 1441.21 73.0824C1331.86 206.683 1172.04 43.2022 1089 10.5C883.902 -70.27 801.759 202.472 594.045 92.7846C386.331 -16.9031 390.302 -16.6435 259.5 85.0671Z" fill="#156299" stroke="white"/>
<defs>
<clipPath id="clip0">
<rect width="1500" height="850" fill="white"/>
</clipPath>
</defs>
</svg>
