<svg width="1440" height="1024" viewBox="0 0 1440 1024" fill="none" xmlns="http://www.w3.org/2000/svg">
<g clip-path="url(#clip0)">
<rect width="1440" height="1024" fill="white"/>
<g filter="url(#filter0_d)">
<path d="M1409.56 513.133C1484.82 371.365 1738.38 919.365 1738.38 919.365L855.964 1419.66C855.964 1419.66 599.733 1033.14 687.885 963.043C729.184 930.201 821.296 962.925 843.532 862.008C861.033 782.58 999.138 788.295 1026.74 780.257C1134.07 748.996 1074.98 615.55 1198.22 616.462C1274.64 617.027 1344.41 635.861 1409.56 513.133Z" fill="#156299"/>
<path d="M1409.56 513.133C1484.82 371.365 1738.38 919.365 1738.38 919.365L855.964 1419.66C855.964 1419.66 599.733 1033.14 687.885 963.043C729.184 930.201 821.296 962.925 843.532 862.008C861.033 782.58 999.138 788.295 1026.74 780.257C1134.07 748.996 1074.98 615.55 1198.22 616.462C1274.64 617.027 1344.41 635.861 1409.56 513.133Z" fill="url(#paint0_linear)"/>
</g>
<g filter="url(#filter1_d)">
<path d="M1051.85 45.846C926.576 -32.3933 990.629 -109.331 1039.5 -140.07C1152.91 -211.397 1516.48 41.4155 1516.48 41.4155L1493.11 166.624C1493.11 166.624 1750.53 452.327 1463.69 398.787C1319.86 371.94 1415.73 275.892 1254.38 245.776C1094.59 215.95 1184.18 128.494 1051.85 45.846Z" fill="#F8E316"/>
<path d="M1051.85 45.846C926.576 -32.3933 990.629 -109.331 1039.5 -140.07C1152.91 -211.397 1516.48 41.4155 1516.48 41.4155L1493.11 166.624C1493.11 166.624 1750.53 452.327 1463.69 398.787C1319.86 371.94 1415.73 275.892 1254.38 245.776C1094.59 215.95 1184.18 128.494 1051.85 45.846Z" fill="url(#paint1_linear)"/>
</g>
<g filter="url(#filter2_d)">
<path d="M217.05 707.632C87.4997 436.191 21.5249 679.225 -131.417 467.754C-242.215 314.554 -85.2353 1020.73 -85.2353 1020.73C-85.2353 1020.73 979.36 1211.37 687.272 1081.97C395.183 952.559 513.693 895.115 453.96 818.102C394.228 741.088 264.599 807.258 217.05 707.632Z" fill="#DA262E"/>
<path d="M217.05 707.632C87.4997 436.191 21.5249 679.225 -131.417 467.754C-242.215 314.554 -85.2353 1020.73 -85.2353 1020.73C-85.2353 1020.73 979.36 1211.37 687.272 1081.97C395.183 952.559 513.693 895.115 453.96 818.102C394.228 741.088 264.599 807.258 217.05 707.632Z" fill="url(#paint2_linear)"/>
</g>
<g filter="url(#filter3_d)">
<path d="M-137 291.629L11.8845 -122.456C11.8845 -122.456 599.141 -341.795 873.025 -181.229C982.391 -117.113 1035.7 13.8695 873.025 37.835C594.994 78.7961 722.287 201.688 607.423 304.986C498.021 403.373 294.051 195.614 181.907 405.614C100.112 558.781 -137 291.629 -137 291.629Z" fill="#156299"/>
<path d="M-137 291.629L11.8845 -122.456C11.8845 -122.456 599.141 -341.795 873.025 -181.229C982.391 -117.113 1035.7 13.8695 873.025 37.835C594.994 78.7961 722.287 201.688 607.423 304.986C498.021 403.373 294.051 195.614 181.907 405.614C100.112 558.781 -137 291.629 -137 291.629Z" fill="url(#paint3_linear)"/>
</g>
</g>
<defs>
<filter id="filter0_d" x="589" y="355" width="1227.54" height="1229.26" filterUnits="userSpaceOnUse" color-interpolation-filters="sRGB">
<feFlood flood-opacity="0" result="BackgroundImageFix"/>
<feColorMatrix in="SourceAlpha" type="matrix" values="0 0 0 0 0 0 0 0 0 0 0 0 0 0 0 0 0 0 127 0"/>
<feOffset dy="4"/>
<feGaussianBlur stdDeviation="2"/>
<feColorMatrix type="matrix" values="0 0 0 0 0 0 0 0 0 0 0 0 0 0 0 0 0 0 0.25 0"/>
<feBlend mode="normal" in2="BackgroundImageFix" result="effect1_dropShadow"/>
<feBlend mode="normal" in="SourceGraphic" in2="effect1_dropShadow" result="shape"/>
</filter>
<filter id="filter1_d" x="975.006" y="-152.752" width="628.271" height="566.223" filterUnits="userSpaceOnUse" color-interpolation-filters="sRGB">
<feFlood flood-opacity="0" result="BackgroundImageFix"/>
<feColorMatrix in="SourceAlpha" type="matrix" values="0 0 0 0 0 0 0 0 0 0 0 0 0 0 0 0 0 0 127 0"/>
<feOffset dy="4"/>
<feGaussianBlur stdDeviation="2"/>
<feColorMatrix type="matrix" values="0 0 0 0 0 0 0 0 0 0 0 0 0 0 0 0 0 0 0.25 0"/>
<feBlend mode="normal" in2="BackgroundImageFix" result="effect1_dropShadow"/>
<feBlend mode="normal" in="SourceGraphic" in2="effect1_dropShadow" result="shape"/>
</filter>
<filter id="filter2_d" x="-175" y="446" width="917" height="689" filterUnits="userSpaceOnUse" color-interpolation-filters="sRGB">
<feFlood flood-opacity="0" result="BackgroundImageFix"/>
<feColorMatrix in="SourceAlpha" type="matrix" values="0 0 0 0 0 0 0 0 0 0 0 0 0 0 0 0 0 0 127 0"/>
<feOffset dy="4"/>
<feGaussianBlur stdDeviation="2"/>
<feColorMatrix type="matrix" values="0 0 0 0 0 0 0 0 0 0 0 0 0 0 0 0 0 0 0.25 0"/>
<feBlend mode="normal" in2="BackgroundImageFix" result="effect1_dropShadow"/>
<feBlend mode="normal" in="SourceGraphic" in2="effect1_dropShadow" result="shape"/>
</filter>
<filter id="filter3_d" x="-141" y="-240" width="1121" height="701" filterUnits="userSpaceOnUse" color-interpolation-filters="sRGB">
<feFlood flood-opacity="0" result="BackgroundImageFix"/>
<feColorMatrix in="SourceAlpha" type="matrix" values="0 0 0 0 0 0 0 0 0 0 0 0 0 0 0 0 0 0 127 0"/>
<feOffset dy="4"/>
<feGaussianBlur stdDeviation="2"/>
<feColorMatrix type="matrix" values="0 0 0 0 0 0 0 0 0 0 0 0 0 0 0 0 0 0 0.25 0"/>
<feBlend mode="normal" in2="BackgroundImageFix" result="effect1_dropShadow"/>
<feBlend mode="normal" in="SourceGraphic" in2="effect1_dropShadow" result="shape"/>
</filter>
<linearGradient id="paint0_linear" x1="1353.62" y1="1202.35" x2="1154.38" y2="933.373" gradientUnits="userSpaceOnUse">
<stop stop-color="#0C395A"/>
<stop offset="1" stop-color="#156299" stop-opacity="0.26"/>
</linearGradient>
<linearGradient id="paint1_linear" x1="1473.77" y1="-42.0691" x2="1258.79" y2="363.429" gradientUnits="userSpaceOnUse">
<stop stop-color="#C6B406"/>
<stop offset="1" stop-color="#F8E316" stop-opacity="0.7"/>
</linearGradient>
<linearGradient id="paint2_linear" x1="-0.0668495" y1="1087.65" x2="531.221" y2="710.976" gradientUnits="userSpaceOnUse">
<stop stop-color="#83161B"/>
<stop offset="0.895833" stop-color="#DA262E" stop-opacity="0.65"/>
</linearGradient>
<linearGradient id="paint3_linear" x1="597.457" y1="754.879" x2="-55.3342" y2="-79.9456" gradientUnits="userSpaceOnUse">
<stop stop-color="#0C395A"/>
<stop offset="0.666667" stop-color="#156299" stop-opacity="0.7"/>
</linearGradient>
<clipPath id="clip0">
<rect width="1440" height="1024" fill="white"/>
</clipPath>
</defs>
</svg>
