<svg width="1500" height="818" viewBox="0 0 1500 818" fill="none" xmlns="http://www.w3.org/2000/svg">
<rect width="1500" height="818" fill="#E5E5E5"/>
<rect width="1500" height="850" fill="white"/>
<path d="M127.747 239.966C-68.0484 228.244 -11.384 -3.99999 -11.384 -3.99999L805.695 -4L1514 -3.99999C1514 -3.99999 1509.95 227.14 1218.03 300.773C1105.46 329.167 1046.52 215.788 937.237 251.687C828.95 287.259 665.552 371.106 509.725 239.966C353.898 108.825 323.543 251.687 127.747 239.966Z" fill="#F8E316" stroke="white"/>
<path d="M203.713 171.894C56.4268 219.096 -19 -9 -19 -9H114.016H1514C1514 -9 1457.99 200.33 1293.38 212.544C1128.77 224.759 1089.84 65.8507 913.5 192.5C737.165 319.149 602.5 250.5 504.5 159.5C406.5 68.5 350.999 124.692 203.713 171.894Z" fill="#DA262E" stroke="white"/>
<path d="M269.5 100.115C138.698 217.844 -19 -9 -19 -9H1487C1487 -9 1455.34 31.4512 1439 54.5568C1329.65 209.198 1222.54 75.8943 1139.5 38.042C934.402 -55.4481 779.5 207.694 634.5 109.606C489.5 11.5183 400.302 -17.6132 269.5 100.115Z" fill="#156299" stroke="white"/>
</svg>
