<svg width="1500" height="850" viewBox="0 0 1500 850" fill="none" xmlns="http://www.w3.org/2000/svg">
<rect width="1500" height="850" fill="#E5E5E5"/>
<rect width="1500" height="850" fill="white"/>
<g clip-path="url(#clip0)">
<path d="M1500 850H0V528H1500V850Z" fill="#E5E5E5"/>
<path d="M1500 850H0V0H1500V850Z" fill="white"/>
<path d="M127.747 610.034C-68.0484 621.756 -11.384 854 -11.384 854L805.695 854L1514 854C1514 854 1509.95 622.86 1218.03 549.227C1105.46 520.833 1046.52 634.212 937.237 598.313C828.95 562.741 665.552 478.894 509.725 610.034C353.898 741.175 323.543 598.313 127.747 610.034Z" fill="#F8E316" stroke="white"/>
<path d="M203.713 678.106C56.4268 630.904 -19 859 -19 859H114.016H1514C1514 859 1457.99 649.67 1293.38 637.456C1128.77 625.241 1089.84 784.149 913.5 657.5C737.165 530.851 602.5 599.5 504.5 690.5C406.5 781.5 350.999 725.308 203.713 678.106Z" fill="#DA262E" stroke="white"/>
<path d="M269.5 749.885C138.698 632.156 -19 859 -19 859H1487C1487 859 1455.34 818.549 1439 795.443C1329.65 640.802 1222.54 774.106 1139.5 811.958C934.402 905.448 779.5 642.306 634.5 740.394C489.5 838.482 400.302 867.613 269.5 749.885Z" fill="#156299" stroke="white"/>
</g>
<path d="M127.747 239.966C-68.0484 228.244 -11.384 -3.99999 -11.384 -3.99999L805.695 -4L1514 -3.99999C1514 -3.99999 1509.95 227.14 1218.03 300.773C1105.46 329.167 1046.52 215.788 937.237 251.687C828.95 287.259 665.552 371.106 509.725 239.966C353.898 108.825 323.543 251.687 127.747 239.966Z" fill="#F8E316" stroke="white"/>
<path d="M203.713 171.894C56.4268 219.096 -19 -9 -19 -9H114.016H1514C1514 -9 1457.99 200.33 1293.38 212.544C1128.77 224.759 1089.84 65.8507 913.5 192.5C737.165 319.149 602.5 250.5 504.5 159.5C406.5 68.5 350.999 124.692 203.713 171.894Z" fill="#DA262E" stroke="white"/>
<path d="M269.5 100.115C138.698 217.844 -19 -9 -19 -9H1487C1487 -9 1455.34 31.4512 1439 54.5568C1329.65 209.198 1222.54 75.8943 1139.5 38.042C934.402 -55.4481 779.5 207.694 634.5 109.606C489.5 11.5183 400.302 -17.6132 269.5 100.115Z" fill="#156299" stroke="white"/>
<defs>
<clipPath id="clip0">
<rect width="1500" height="322" fill="white" transform="matrix(1 0 0 -1 0 850)"/>
</clipPath>
</defs>
</svg>
