<svg width="1500" height="1004" viewBox="0 0 1500 1004" fill="none" xmlns="http://www.w3.org/2000/svg">
<rect width="1500" height="1004" fill="#E5E5E5"/>
<rect width="1500" height="1000" transform="translate(0 4)" fill="white"/>
<path d="M144 167C-49.5001 159.001 6.49999 0.499458 6.49999 0.499458L814 0.499451L1514 0.499458C1514 0.499458 1510 158.247 1221.5 208.499C1110.25 227.878 1052 150.499 944 174.999C836.982 199.277 675.5 256.5 521.5 167C367.5 77.5 337.5 174.999 144 167Z" fill="#F8E316" stroke="white"/>
<path d="M218.5 150.5C73.9999 191.076 0 -5 0 -5H130.5H1504C1504 -5 1437.5 176 1276 186.5C1114.5 197 1146.5 100 926 172.5C705.5 245 661 208.5 519.5 150.5C378 92.5 363 109.924 218.5 150.5Z" fill="#DA262E" stroke="white"/>
<path d="M259.5 89.0671C128.698 190.778 -29 -5.20221 -29 -5.20221H1504C1504 -5.20221 1457.55 57.1205 1441.21 77.0824C1331.86 210.683 1172.04 47.2022 1089 14.5C883.902 -66.27 801.759 206.472 594.045 96.7846C386.331 -12.9031 390.302 -12.6435 259.5 89.0671Z" fill="#156299" stroke="white"/>
</svg>
