<svg width="1500" height="850" viewBox="0 0 1500 850" fill="none" xmlns="http://www.w3.org/2000/svg">
<rect width="1500" height="850" fill="#E5E5E5"/>
<g clip-path="url(#clip0)">
<rect width="1500" height="850" fill="white"/>
<g clip-path="url(#clip1)">
<path d="M1525 943H-8V621H1525V943Z" fill="#E5E5E5"/>
<path d="M1525 943H-8V93H1525V943Z" fill="white"/>
<path d="M125.623 730.034C-74.4795 741.756 -16.5685 974 -16.5685 974L818.486 974L1542.37 974C1542.37 974 1538.24 742.86 1239.89 669.227C1124.85 640.833 1064.61 754.212 952.922 718.313C842.253 682.741 675.26 598.894 516.005 730.034C356.75 861.175 325.727 718.313 125.623 730.034Z" fill="#F8E316" stroke="white"/>
<path d="M200.195 771.106C49.6682 723.904 -27.418 952 -27.418 952H108.524H1539.31C1539.31 952 1482.07 742.67 1313.83 730.456C1145.6 718.241 1105.82 877.149 925.597 750.5C745.383 623.851 607.755 692.5 507.599 783.5C407.443 874.5 350.721 818.308 200.195 771.106Z" fill="#DA262E" stroke="white"/>
<path d="M261.297 779.885C127.617 662.156 -33.55 889 -33.55 889H1505.58C1505.58 889 1473.23 848.549 1456.53 825.443C1344.77 670.802 1235.3 804.106 1150.44 841.958C940.827 935.448 782.517 672.306 634.327 770.394C486.137 868.482 394.977 897.613 261.297 779.885Z" fill="#156299" stroke="white"/>
</g>
</g>
<path d="M127.747 239.966C-68.0484 228.244 -11.384 -3.99999 -11.384 -3.99999L805.695 -4L1514 -3.99999C1514 -3.99999 1509.95 227.14 1218.03 300.773C1105.46 329.167 1046.52 215.788 937.237 251.687C828.95 287.259 665.552 371.106 509.725 239.966C353.898 108.825 323.543 251.687 127.747 239.966Z" fill="#F8E316" stroke="white"/>
<path d="M203.713 171.894C56.4268 219.096 -19 -9 -19 -9H114.016H1514C1514 -9 1457.99 200.33 1293.38 212.544C1128.77 224.759 1089.84 65.8507 913.5 192.5C737.165 319.149 602.5 250.5 504.5 159.5C406.5 68.5 350.999 124.692 203.713 171.894Z" fill="#DA262E" stroke="white"/>
<path d="M269.5 100.115C138.698 217.844 -19 -9 -19 -9H1487C1487 -9 1455.34 31.4512 1439 54.5568C1329.65 209.198 1222.54 75.8943 1139.5 38.042C934.402 -55.4481 779.5 207.694 634.5 109.606C489.5 11.5183 400.302 -17.6132 269.5 100.115Z" fill="#156299" stroke="white"/>
<defs>
<clipPath id="clip0">
<rect width="1500" height="850" fill="white"/>
</clipPath>
<clipPath id="clip1">
<rect width="1533" height="322" fill="white" transform="matrix(1 0 0 -1 -8 943)"/>
</clipPath>
</defs>
</svg>
